<mxfile host="app.diagrams.net" modified="2023-07-25T08:22:49.607Z" agent="Mozilla/5.0 (Windows NT 10.0; Win64; x64) AppleWebKit/537.36 (KHTML, like Gecko) Chrome/114.0.0.0 Safari/537.36" version="21.6.5" etag="GWXEXrYS7_i3AYLUqAfV" type="github">
  <diagram name="페이지-1" id="N8IUz9QaEooIXd0NDNb0">
    <mxGraphModel>
      <root>
        <mxCell id="0" />
        <mxCell id="1" parent="0" />
      </root>
    </mxGraphModel>
  </diagram>
</mxfile>
